<svg xmlns="http://www.w3.org/2000/svg" viewBox="0 0 443.71 361.9"><title>cloud-and-moon</title><path d="M69.72,361.9A70,70,0,0,1,54.28,223.63a47.67,47.67,0,0,1,46.85-56.17,47.3,47.3,0,0,1,24.37,6.69A106.05,106.05,0,0,1,314.74,222a70,70,0,0,1-4.05,139.86Zm31.41-174.44a27.64,27.64,0,0,0-27.61,27.61,27.31,27.31,0,0,0,2.93,12.37,10,10,0,0,1-8.54,14.48,50,50,0,0,0,1.88,100h240.8a50,50,0,0,0-.6-100c-1,0-2.14,0-3.51.14a10,10,0,0,1-10.67-9.34,86,86,0,0,0-159.46-38.94,10,10,0,0,1-15.64,1.87A27.42,27.42,0,0,0,101.13,187.46Z" style="fill:#ffffff"/><path d="M369,237.07a10,10,0,0,1-2.29-19.74,99.7,99.7,0,0,0,48.09-27A120.08,120.08,0,0,1,335.06,20.36a100,100,0,0,0-91.36,96.81,10,10,0,1,1-20-.55A120,120,0,0,1,343.66,0c3.21,0,6.49.13,9.76.4a10,10,0,0,1,7.38,15.72,100,100,0,0,0,73.71,157.11,10,10,0,0,1,7.38,15.72,119.91,119.91,0,0,1-70.59,47.86A10,10,0,0,1,369,237.07Z" style="fill:#ffffff"/></svg>