<svg xmlns="http://www.w3.org/2000/svg" viewBox="0 0 380 229.65"><title>Asset 1</title><path d="M69.72,229.65A70,70,0,0,1,54.28,91.38a47.67,47.67,0,0,1,46.85-56.17A47.3,47.3,0,0,1,125.5,41.9,106,106,0,0,1,314.74,89.78a70,70,0,0,1-4.05,139.86ZM101.13,55.21A27.64,27.64,0,0,0,73.51,82.82a27.3,27.3,0,0,0,2.93,12.37,10,10,0,0,1-8.54,14.48,50,50,0,0,0,1.88,100h240.8a50,50,0,0,0-.6-100c-1,0-2.15,0-3.52.14a10,10,0,0,1-10.67-9.34A86,86,0,0,0,136.34,61.49a10,10,0,0,1-15.64,1.87A27.42,27.42,0,0,0,101.13,55.21Z"/></svg>