<svg xmlns="http://www.w3.org/2000/svg" viewBox="0 0 380 336.4"><title>rain</title><path d="M310.58,229.55H300l-230.28-.09A69.93,69.93,0,0,1,54.28,91.38a47.67,47.67,0,0,1,46.85-56.17,47.3,47.3,0,0,1,24.37,6.69A106,106,0,0,1,314.73,89.77a70,70,0,0,1-4.05,139.79Zm-10.58-20h10.53a50,50,0,0,0-.55-99.95c-1.18,0-2.44.08-3.52.15a10,10,0,0,1-10.67-9.34A86,86,0,0,0,136.34,61.49a10,10,0,0,1-15.64,1.87A27.61,27.61,0,0,0,76.44,95.2a10,10,0,0,1-8.54,14.48,49.91,49.91,0,0,0,1.81,99.78H80Z" style="fill:#000100"/><path d="M155,336.4a10,10,0,0,1-7.07-17.07l25-25a10,10,0,1,1,14.13,14.15l-25,25A10,10,0,0,1,155,336.4Z" style="fill:#000100"/><path d="M68,279.4a10,10,0,0,1-7.07-17.07l15.79-15.78A10,10,0,1,1,90.82,260.7L75,276.48A10,10,0,0,1,68,279.4Z" style="fill:#000100"/><path d="M207,279.4a10,10,0,0,1-7.07-17.07l15.79-15.78a10,10,0,1,1,14.13,14.15L214,276.48A10,10,0,0,1,207,279.4Z" style="fill:#000100"/><path d="M252,304.56a10,10,0,0,1-7.07-17.08l41-40.94A10,10,0,1,1,300,260.7l-41,40.94A10,10,0,0,1,252,304.56Z" style="fill:#000100"/><path d="M101,315.56a10,10,0,0,1-7.07-17.07l52-51.94A10,10,0,1,1,160,260.7l-52,51.94A10,10,0,0,1,101,315.56Z" style="fill:#000100"/></svg>