<svg xmlns="http://www.w3.org/2000/svg" viewBox="0 0 410 438.22"><title>rain-and-moon</title><path d="M155.16,438.22a10,10,0,0,1-7.07-17.07l23-23a10,10,0,1,1,14.13,14.15l-23,23A10,10,0,0,1,155.16,438.22Z" style="fill:#000100"/><path d="M65,334.7A65.26,65.26,0,0,1,49.84,206a44.67,44.67,0,0,1,44-51.89,44.34,44.34,0,0,1,22.23,5.91A97.61,97.61,0,0,1,194,121.73a98.59,98.59,0,0,1,97.13,82.69,65.24,65.24,0,0,1-4.41,130.28ZM93.88,174.14a24.65,24.65,0,0,0-24.62,24.62,24.35,24.35,0,0,0,2.61,11,10,10,0,0,1-8.54,14.48A45.23,45.23,0,0,0,65,314.7H286.67a45.24,45.24,0,0,0-.55-90.47c-.93,0-1.94,0-3.18.13A10,10,0,0,1,272.27,215,78.4,78.4,0,0,0,127,179.54a10,10,0,0,1-15.64,1.87A24.45,24.45,0,0,0,93.88,174.14Z" style="fill:#000100"/><path d="M347.14,218a10,10,0,0,1-3-19.55,91.61,91.61,0,0,0,36.82-22A111.33,111.33,0,0,1,307.87,20.46a91.27,91.27,0,0,0-81.74,83.87,10,10,0,1,1-19.94-1.49A111.26,111.26,0,0,1,317.12,0c3,0,6,.12,9,.37a10,10,0,0,1,7.38,15.72A91.25,91.25,0,0,0,400.8,159.45a10,10,0,0,1,7.38,15.72,111.93,111.93,0,0,1-58.07,42.36A10,10,0,0,1,347.14,218Z" style="fill:#000100"/><path d="M75.08,385.75A10,10,0,0,1,68,368.68l14.54-14.52a10,10,0,1,1,14.13,14.15L82.15,382.83A10,10,0,0,1,75.08,385.75Z" style="fill:#000100"/><path d="M203,385.75A10,10,0,0,1,196,368.68l14.54-14.52a10,10,0,0,1,14.13,14.15l-14.54,14.52A10,10,0,0,1,203,385.75Z" style="fill:#000100"/><path d="M244.45,408.91a10,10,0,0,1-7.07-17.08l37.73-37.68a10,10,0,1,1,14.13,14.15L251.51,406A10,10,0,0,1,244.45,408.91Z" style="fill:#000100"/><path d="M105.46,419A10,10,0,0,1,98.39,402l47.86-47.81a10,10,0,1,1,14.13,14.15l-47.86,47.81A10,10,0,0,1,105.46,419Z" style="fill:#000100"/></svg>