<svg xmlns="http://www.w3.org/2000/svg" viewBox="0 0 380.25 347.4"><title>snowstorm</title><path d="M114.71,265.2a10,10,0,0,1-5-18.65l60.51-35.2a10,10,0,1,1,10.06,17.29l-60.51,35.2A10,10,0,0,1,114.71,265.2Z" style="fill:#ffffff"/><path d="M175.71,264.29a10,10,0,0,1-4.76-1.21l-61.52-33.39A10,10,0,1,1,119,212.11l61.52,33.39a10,10,0,0,1-4.78,18.79Z" style="fill:#ffffff"/><path d="M144.94,282.46h0a10.2,10.2,0,0,1-10-10.23l0-68.8a10,10,0,0,1,10-10h0a9.88,9.88,0,0,1,10,9.87l0,69A10.14,10.14,0,0,1,144.94,282.46Z" style="fill:#ffffff"/><path d="M209.71,231.2a10,10,0,0,1-5-18.65l60.51-35.2a10,10,0,1,1,10.06,17.29l-60.51,35.2A10,10,0,0,1,209.71,231.2Z" style="fill:#ffffff"/><path d="M270.71,230.29a10,10,0,0,1-4.76-1.21l-61.52-33.39A10,10,0,1,1,214,178.11l61.52,33.39a10,10,0,0,1-4.78,18.79Z" style="fill:#ffffff"/><path d="M239.94,248.46h0a10.2,10.2,0,0,1-10-10.23l0-68.8a10,10,0,0,1,10-10h0a9.88,9.88,0,0,1,10,9.87l0,69A10.14,10.14,0,0,1,239.94,248.46Z" style="fill:#ffffff"/><path d="M128,347.4a10,10,0,0,1-7.07-17.07l25-25a10,10,0,1,1,14.13,14.15l-25,25A10,10,0,0,1,128,347.4Z" style="fill:#ffffff"/><path d="M79,314.4a10,10,0,0,1-7.07-17.07l15.79-15.78a10,10,0,1,1,14.13,14.15L86,311.48A10,10,0,0,1,79,314.4Z" style="fill:#ffffff"/><path d="M194,299.4a10,10,0,0,1-7.07-17.07l15.79-15.78a10,10,0,1,1,14.13,14.15L201,296.48A10,10,0,0,1,194,299.4Z" style="fill:#ffffff"/><path d="M235,317.4a10,10,0,0,1-7.07-17.07l52-51.94A10,10,0,1,1,294,262.54l-52,51.94A10,10,0,0,1,235,317.4Z" style="fill:#ffffff"/><path d="M311.08,229.55H301a10,10,0,0,1,0-20h10a49.75,49.75,0,0,0,49.21-50,50.12,50.12,0,0,0-50.14-50c-1.26,0-2.65.09-3.58.15a10,10,0,0,1-10.67-9.33,86.06,86.06,0,0,0-159.5-38.93,10,10,0,0,1-15.64,1.87A27.61,27.61,0,0,0,76.45,95.2a10,10,0,0,1-8.54,14.48,49.91,49.91,0,0,0,1.81,99.78H82a10,10,0,1,1,0,20H69.72A69.93,69.93,0,0,1,54.28,91.38a47.67,47.67,0,0,1,46.85-56.17,47.32,47.32,0,0,1,24.38,6.69A106.08,106.08,0,0,1,314.79,89.76a70.07,70.07,0,0,1,45.32,119.07,69.24,69.24,0,0,1-48.93,20.72Z" style="fill:#ffffff"/></svg>