<svg xmlns="http://www.w3.org/2000/svg" viewBox="0 0 380 380"><title>sun</title><path d="M190.1,290.1a100,100,0,1,1,100-100A100.11,100.11,0,0,1,190.1,290.1Zm0-180a80,80,0,1,0,80,80A80.09,80.09,0,0,0,190.1,110.1Z" style="fill:#ffffff"/><path d="M190,74a10,10,0,0,1-10-10V10a10,10,0,0,1,20,0V64A10,10,0,0,1,190,74Z" style="fill:#ffffff"/><path d="M190,380a10,10,0,0,1-10-10V316a10,10,0,0,1,20,0v54A10,10,0,0,1,190,380Z" style="fill:#ffffff"/><path d="M64,200H10a10,10,0,0,1,0-20H64a10,10,0,0,1,0,20Z" style="fill:#ffffff"/><path d="M370,200H316a10,10,0,0,1,0-20h54a10,10,0,0,1,0,20Z" style="fill:#ffffff"/><path d="M278.54,111.46a10,10,0,0,1-7.07-17.07l38.74-38.74a10,10,0,1,1,14.14,14.14l-38.74,38.74A10,10,0,0,1,278.54,111.46Z" style="fill:#ffffff"/><path d="M62.72,327.28a10,10,0,0,1-7.07-17.07l38.74-38.74a10,10,0,1,1,14.14,14.14L69.79,324.35A10,10,0,0,1,62.72,327.28Z" style="fill:#ffffff"/><path d="M101.46,111.46a10,10,0,0,1-7.07-2.93L55.65,69.79A10,10,0,0,1,69.79,55.65l38.74,38.74a10,10,0,0,1-7.07,17.07Z" style="fill:#ffffff"/><path d="M317.28,327.28a10,10,0,0,1-7.07-2.93l-38.74-38.74a10,10,0,0,1,14.14-14.14l38.74,38.74a10,10,0,0,1-7.07,17.07Z" style="fill:#ffffff"/></svg>