<svg xmlns="http://www.w3.org/2000/svg" viewBox="0 0 380 336.4"><title>thunderstorm</title><path d="M310.58,229.55H300a10,10,0,0,1,0-20h10.54a50,50,0,0,0-.55-99.95c-1.18,0-2.44.08-3.52.15a10,10,0,0,1-10.67-9.34A86,86,0,0,0,136.34,61.49a10,10,0,0,1-15.64,1.87A27.61,27.61,0,0,0,76.44,95.2a10,10,0,0,1-8.54,14.48,49.91,49.91,0,0,0,1.81,99.78H80a10,10,0,0,1,0,20H69.72A69.93,69.93,0,0,1,54.28,91.38a47.67,47.67,0,0,1,46.85-56.17,47.3,47.3,0,0,1,24.37,6.69A106,106,0,0,1,314.73,89.77a70,70,0,0,1-4.05,139.79Z" style="fill:#000100"/><path d="M96,323.55A10,10,0,0,1,89,306.48l43-43H106a10,10,0,0,1-6.89-17.25l63-59.83a10,10,0,0,1,13.77,14.5l-44.83,42.58H156a10,10,0,0,1,7.08,17.07l-60,60.08A10,10,0,0,1,96,323.55Z" style="fill:#000100"/><path d="M198,288.4a10,10,0,0,1-7.07-17.07l42.91-42.87H208a10,10,0,0,1-6.9-17.23l63-60.12a10,10,0,1,1,13.81,14.47l-44.94,42.89h25A10,10,0,0,1,265,225.54l-60,59.94A10,10,0,0,1,198,288.4Z" style="fill:#000100"/><path d="M147,336.4a10,10,0,0,1-7.07-17.07l25-25a10,10,0,1,1,14.13,14.15l-25,25A10,10,0,0,1,147,336.4Z" style="fill:#000100"/><path d="M56,303.4a10,10,0,0,1-7.07-17.07l15.79-15.78A10,10,0,1,1,78.82,284.7L63,300.48A10,10,0,0,1,56,303.4Z" style="fill:#000100"/><path d="M235,317.4a10,10,0,0,1-7.07-17.07l52-51.94A10,10,0,1,1,294,262.54l-52,51.94A10,10,0,0,1,235,317.4Z" style="fill:#000100"/></svg>