<svg xmlns="http://www.w3.org/2000/svg" viewBox="0 0 459.75 420"><title>cloud-and-sun</title><path d="M326.55,270a10,10,0,0,1-6.31-17.76,80,80,0,1,0-129.89-71.13,10,10,0,1,1-19.88-2.22,100,100,0,1,1,162.38,88.87A10,10,0,0,1,326.55,270Z" style="fill:#ffffff"/><path d="M269.75,74a10,10,0,0,1-10-10V10a10,10,0,0,1,20,0V64A10,10,0,0,1,269.75,74Z" style="fill:#ffffff"/><path d="M143.75,200h-54a10,10,0,0,1,0-20h54a10,10,0,0,1,0,20Z" style="fill:#ffffff"/><path d="M449.75,200h-54a10,10,0,0,1,0-20h54a10,10,0,0,1,0,20Z" style="fill:#ffffff"/><path d="M358.29,111.46a10,10,0,0,1-7.07-17.07L390,55.65A10,10,0,1,1,404.1,69.79l-38.74,38.74A10,10,0,0,1,358.29,111.46Z" style="fill:#ffffff"/><path d="M181.21,111.46a10,10,0,0,1-7.07-2.93L135.4,69.79a10,10,0,0,1,14.14-14.14l38.74,38.74a10,10,0,0,1-7.07,17.07Z" style="fill:#ffffff"/><path d="M397,327.28a10,10,0,0,1-7.07-2.93l-38.74-38.74a10,10,0,0,1,14.14-14.14l38.74,38.74A10,10,0,0,1,397,327.28Z" style="fill:#ffffff"/><path d="M69.72,420A70,70,0,0,1,54.28,281.73a47.67,47.67,0,0,1,46.85-56.17,47.3,47.3,0,0,1,24.37,6.69,106.05,106.05,0,0,1,189.24,47.89A70,70,0,0,1,310.68,420Zm31.41-174.44a27.64,27.64,0,0,0-27.61,27.61,27.3,27.3,0,0,0,2.93,12.37A10,10,0,0,1,67.9,300a50,50,0,0,0,1.88,100h240.8a50,50,0,0,0-.6-100c-1,0-2.14,0-3.51.14a10,10,0,0,1-10.67-9.34,86,86,0,0,0-159.45-38.94,10,10,0,0,1-15.64,1.87A27.42,27.42,0,0,0,101.13,245.56Z" style="fill:#ffffff"/></svg>