<svg xmlns="http://www.w3.org/2000/svg" viewBox="0 0 414.75 471.92"><title>rain-and-sun</title><path d="M301,232.6a9.5,9.5,0,0,1-6.54-16.39A71.4,71.4,0,0,0,317,163.93,72,72,0,0,0,174,151a9.5,9.5,0,0,1-18.7-3.38A91,91,0,1,1,307.56,230,9.47,9.47,0,0,1,301,232.6Z" style="fill:#ffffff"/><path d="M216.76,64.92a9.5,9.5,0,0,1-9.27-7.48l-10-45.92a9.5,9.5,0,1,1,18.56-4l10,45.92a9.51,9.51,0,0,1-9.29,11.53Z" style="fill:#ffffff"/><path d="M356.39,153.7a9.5,9.5,0,0,1-2-18.78l48.85-10.66a9.5,9.5,0,0,1,4.05,18.56l-48.85,10.66A9.54,9.54,0,0,1,356.39,153.7Z" style="fill:#ffffff"/><path d="M305.26,81a9.5,9.5,0,0,1-8-14.63l26.81-41.77a9.5,9.5,0,1,1,16,10.26L313.27,76.58A9.49,9.49,0,0,1,305.26,81Z" style="fill:#ffffff"/><path d="M148.52,115.15a9.45,9.45,0,0,1-5.12-1.51L101.63,86.84a9.5,9.5,0,1,1,10.26-16l41.77,26.81a9.5,9.5,0,0,1-5.14,17.5Z" style="fill:#ffffff"/><path d="M380.25,264.72a9.46,9.46,0,0,1-5.12-1.51l-41.77-26.81a9.5,9.5,0,0,1,10.26-16l41.77,26.81a9.5,9.5,0,0,1-5.14,17.5Z" style="fill:#ffffff"/><path d="M63.6,372.66a63.89,63.89,0,0,1-14.49-126,43.63,43.63,0,0,1,42.95-51,43.3,43.3,0,0,1,22,5.92A96.52,96.52,0,0,1,286,245.09a63.87,63.87,0,0,1-4,127.56Zm28.46-158a24.6,24.6,0,0,0-24.57,24.57,24.29,24.29,0,0,0,2.61,11A9.5,9.5,0,0,1,62,264a44.87,44.87,0,0,0,1.69,89.69H281.82a44.87,44.87,0,0,0-.54-89.73c-.93,0-1.93,0-3.16.12A9.5,9.5,0,0,1,268,255.17a77.5,77.5,0,0,0-143.65-35.08,9.5,9.5,0,0,1-14.86,1.77A24.41,24.41,0,0,0,92.06,214.62Z" style="fill:#ffffff"/><path d="M146.94,471.92a9.5,9.5,0,0,1-6.71-16.22L162.92,433a9.5,9.5,0,1,1,13.43,13.44l-22.69,22.66A9.47,9.47,0,0,1,146.94,471.92Z" style="fill:#ffffff"/><path d="M68.12,420.28a9.5,9.5,0,0,1-6.71-16.22l14.31-14.29a9.5,9.5,0,0,1,13.43,13.44L74.84,417.5A9.47,9.47,0,0,1,68.12,420.28Z" style="fill:#ffffff"/><path d="M194.06,420.28a9.5,9.5,0,0,1-6.71-16.22l14.31-14.29a9.5,9.5,0,1,1,13.43,13.44L200.77,417.5A9.47,9.47,0,0,1,194.06,420.28Z" style="fill:#ffffff"/><path d="M234.83,443.08a9.5,9.5,0,0,1-6.71-16.22l37.14-37.09a9.5,9.5,0,1,1,13.43,13.44L241.54,440.3A9.47,9.47,0,0,1,234.83,443.08Z" style="fill:#ffffff"/><path d="M98,453a9.5,9.5,0,0,1-6.71-16.22l47.1-47.06a9.5,9.5,0,1,1,13.43,13.44l-47.1,47.06A9.47,9.47,0,0,1,98,453Z" style="fill:#ffffff"/></svg>