<svg xmlns="http://www.w3.org/2000/svg" viewBox="0 0 380 383.46"><title>snow</title><path d="M310.58,229.55H300l-230.28-.09A69.93,69.93,0,0,1,54.28,91.38a47.67,47.67,0,0,1,46.85-56.17,47.3,47.3,0,0,1,24.37,6.69A106,106,0,0,1,314.73,89.77a70,70,0,0,1-4.05,139.79Zm-10.58-20h10.53a50,50,0,0,0-.55-99.95c-1.18,0-2.44.08-3.51.15a10,10,0,0,1-10.67-9.34A86,86,0,0,0,136.34,61.49a10,10,0,0,1-15.64,1.87A27.61,27.61,0,0,0,76.44,95.2a10,10,0,0,1-8.54,14.48,49.91,49.91,0,0,0,1.81,99.78H80Z" style="fill:#ffffff"/><path d="M94,364.52a10,10,0,0,1-7.07-17.07l61.9-61.84A10,10,0,1,1,163,299.75l-61.9,61.84A10,10,0,0,1,94,364.52Z" style="fill:#ffffff"/><path d="M155.87,364.55a10,10,0,0,1-7.07-2.93L87,299.71a10,10,0,0,1,14.15-14.13l61.84,61.9a10,10,0,0,1-7.07,17.07Z" style="fill:#ffffff"/><path d="M175,333.46h0l-100,0a10,10,0,0,1,0-20h0l100,.1a9.95,9.95,0,1,1,0,19.9Z" style="fill:#ffffff"/><path d="M124.93,383.46h0a9.94,9.94,0,0,1-10-9.94l.05-100a10,10,0,0,1,10-10h0a10.06,10.06,0,0,1,10,10.07l-.05,100A10,10,0,0,1,124.93,383.46Z" style="fill:#ffffff"/><path d="M232.71,320.2a10,10,0,0,1-5-18.65l60.51-35.2a10,10,0,0,1,10.06,17.29l-60.51,35.2A10,10,0,0,1,232.71,320.2Z" style="fill:#ffffff"/><path d="M293.71,319.29a10,10,0,0,1-4.76-1.21l-61.52-33.39A10,10,0,1,1,237,267.11l61.52,33.39a10,10,0,0,1-4.78,18.79Z" style="fill:#ffffff"/><path d="M262.94,337.46h0a10.19,10.19,0,0,1-10-10.23l0-68.8a10,10,0,0,1,10-10h0a9.88,9.88,0,0,1,10,9.87l0,69A10.14,10.14,0,0,1,262.94,337.46Z" style="fill:#ffffff"/></svg>